<?xml version="1.0" encoding="utf-8"?>
<!-- Generator: Adobe Illustrator 22.1.0, SVG Export Plug-In . SVG Version: 6.00 Build 0)  -->
<svg version="1.1" id="Слой_1" xmlns="http://www.w3.org/2000/svg" xmlns:xlink="http://www.w3.org/1999/xlink" x="0px" y="0px"
	 viewBox="0 0 188.7 46.7" style="enable-background:new 0 0 188.7 46.7;" xml:space="preserve">
<style type="text/css">
	.st0{fill-rule:evenodd;clip-rule:evenodd;}
	.st1{fill-rule:evenodd;clip-rule:evenodd;fill:#D24A43;stroke:#D24A43;stroke-width:0.216;stroke-miterlimit:2.6131;}
	.st2{fill-rule:evenodd;clip-rule:evenodd;fill:#D24A43;}
	.st3{fill:none;stroke:#D24A43;stroke-width:0.216;stroke-miterlimit:2.6131;}
</style>
<g>
	<polygon class="st0" points="1,3.4 9.3,3.4 9.3,25.3 18.4,25.4 18.4,33.6 1,33.6 1,3.4 	"/>
	<polygon class="st0" points="31.2,33.6 22.9,33.6 22.9,11.7 13.8,11.6 13.8,3.4 31.2,3.4 31.2,33.6 	"/>
	<polygon class="st0" points="10.6,0.8 12.6,0.8 12.6,11.6 10.6,11.6 10.6,0.8 	"/>
	<polygon class="st0" points="19.8,25.3 21.8,25.3 21.8,36.1 19.8,36.1 19.8,25.3 	"/>
	<polygon class="st1" points="41.9,2.3 49,2.3 49,35 41.9,35 41.9,2.3 	"/>
	<path class="st1" d="M101.3,10.9h7v2.4c2.4-2.2,3.8-2.8,7.4-3v5.5c-2.3,0.2-7.4,2-7.4,6.2v13h-7V10.9L101.3,10.9z"/>
	<path class="st1" d="M141.4,13.1l0-2.2h-7V35h7V20c-0.1-2.2,6.1-5.7,6.2,0.5V35h7.1V18.4C154.6,11.3,148.1,8.6,141.4,13.1
		L141.4,13.1z"/>
	<path class="st2" d="M122.4,10.3c-1.4-0.1-2.8-0.1-4.1-0.1v5.5c1.5-0.1,3,0,4.1,0.1c1.6,0.2,2.6,0.8,2.6,1.8v1.7
		c-0.9-0.5-1.7-0.9-2.6-1.2c-0.7-0.2-1.4-0.2-2.1-0.2c-4.8,0-8.2,3.8-8.2,8.6c0,4.7,3.6,8.5,8.3,8.5c0.7,0,1.4,0,2-0.2
		c0.9-0.2,1.7-0.5,2.6-1l0,1.2h7V17.5C132,11.9,127.2,10.6,122.4,10.3L122.4,10.3z M122.4,29.4c-2,0-3.6-1.6-3.6-3.5
		s1.6-3.6,3.6-3.6c1,0,1.9,0.4,2.5,1c0.6,0.6,1,1.5,1,2.5C125.9,27.8,124.4,29.4,122.4,29.4L122.4,29.4z"/>
	<path class="st2" d="M171.2,2.2l0,10.7c-1.2-0.9-2.5-1.4-3.9-1.6c-0.4-0.1-0.8-0.1-1.2-0.1c-5.6,0-10.2,5.2-10.2,11.6
		c0,6.4,4.6,11.6,10.2,11.6c0.4,0,0.9,0,1.2-0.1c1.5-0.3,2.8-1,4-1.8l0,2.4h7.1V2.2H171.2L171.2,2.2z M167.3,27.4
		c-2.6,0-4.7-2.2-4.7-4.9c0-2.7,2.1-4.9,4.7-4.9c2.6,0,4.7,2.2,4.7,4.9C172,25.1,169.9,27.4,167.3,27.4L167.3,27.4z"/>
	<path class="st2" d="M74.4,24.6c0.1-0.6,0.1-1.2,0.1-1.9c0-7-5.3-12.8-11.8-12.8c0,0,0,0-0.1,0c-6.5,0-11.9,5.7-11.9,12.8
		c0,7,5.3,12.8,11.9,12.8c0,0,0,0,0.1,0c5,0,9.3-3.5,11-8.2h-7.2c-0.8,1-1.7,1.6-3.6,1.7c-0.1,0-0.2,0-0.2,0
		c-1.8-0.1-3.9-1.7-4.2-4.4h4.2L74.4,24.6L74.4,24.6z M58.6,20.3c0.5-2.8,1.8-4.1,4.1-4.2c0,0,0.1,0,0.1,0c2.4-0.1,3.6,1.6,4,4.2
		h-4.1L58.6,20.3L58.6,20.3z"/>
	<path class="st2" d="M91.9,10.9l0,2.6c-1.2-1.1-2.7-1.9-4.4-2.2c-0.4-0.1-0.8-0.1-1.2-0.1c-5.9,0-10.7,5.2-10.7,11.6
		c0,6.4,4.8,11.6,10.7,11.6c0.4,0,0.9,0,1.2,0c1.6-0.1,3.1-0.6,4.4-1.6c1.1,3.3-1.5,7-4.4,6.7c-1.2-0.1-2.4-0.7-3.4-2.3h-8.7
		c1.5,5.7,6.9,8.8,12.2,8.9C93.3,46.1,99,42.6,99,34.9v-24H91.9L91.9,10.9z M87.5,28c-2.6,0-4.8-2.3-4.8-5.1c0-2.8,2.2-5.1,4.8-5.1
		c2.7,0,4.8,2.3,4.8,5.1C92.3,25.7,90.2,28,87.5,28L87.5,28z"/>
	<path class="st3" d="M91.9,13.4l0-2.6h7v24 M99,34.9c0,14.6-20.4,14.2-23.6,2.2 M75.4,37.1h8.7 M84.1,37.1c3.7,5.4,9.4,0.1,7.8-4.5
		c-1.7,1.2-3.5,1.7-5.7,1.7c-5.9,0-10.7-5.2-10.7-11.6c0-6.4,4.8-11.6,10.7-11.6c2.2,0,4.2,0.9,5.6,2.3 M87.5,17.8
		c2.7,0,4.8,2.3,4.8,5.1c0,2.8-2.1,5.1-4.8,5.1c-2.6,0-4.8-2.3-4.8-5.1C82.7,20.1,84.9,17.8,87.5,17.8"/>
	<path class="st0" d="M181.1,5.1c0-1.8,1.4-3.2,3.1-3.2c1.7,0,3.1,1.4,3.1,3.2c0,1.8-1.4,3.2-3.1,3.2C182.5,8.3,181.1,6.9,181.1,5.1
		L181.1,5.1z M184.2,8.9c2.1,0,3.9-1.6,3.9-3.8c0-2.2-1.8-3.8-3.9-3.8c-2.1,0-3.9,1.6-3.9,3.8C180.4,7.3,182.1,8.9,184.2,8.9
		L184.2,8.9z M183.4,5.4h0.8l1.2,1.9h0.7l-1.2-1.9c0.6-0.1,1.1-0.4,1.1-1.2c0-0.9-0.5-1.3-1.6-1.3h-1.7v4.4h0.7V5.4L183.4,5.4z
		 M183.4,4.8V3.5h0.9c0.5,0,1,0.1,1,0.6c0,0.7-0.5,0.7-1.1,0.7H183.4L183.4,4.8z"/>
</g>
</svg>
