<?xml version="1.0" encoding="utf-8"?>
<!-- Generator: Adobe Illustrator 22.1.0, SVG Export Plug-In . SVG Version: 6.00 Build 0)  -->
<svg version="1.1" id="Layer_1" xmlns="http://www.w3.org/2000/svg" xmlns:xlink="http://www.w3.org/1999/xlink" x="0px" y="0px"
	 viewBox="0 0 142.3 44.6" style="enable-background:new 0 0 142.3 44.6;" xml:space="preserve">
<style type="text/css">
	.st0{fill:#5AAE62;}
	.st1{fill:#FFFFFF;}
</style>
<g>
	<g>
		<polygon class="st0" points="70.1,28.7 64.6,28.7 64.6,32.6 69.9,32.6 69.9,34.3 64.6,34.3 64.6,38.4 70.3,38.4 70.3,40.1 
			62.7,40.1 62.7,27 70.1,27 70.1,28.7 		"/>
		<polygon class="st0" points="74.3,27 76,27 76,40.1 74.3,40.1 74.3,27 		"/>
		<path class="st0" d="M82.6,36h6.1c0-3.2-1.5-4.7-3.7-4.7c-2.4,0-4,1.7-4,4.4c0,2.4,1.5,4.6,4.2,4.6c1.4,0,2.4-0.4,3.4-1v-1.6
			c-1,0.7-2,1-3,1C83.8,38.6,82.9,37.7,82.6,36L82.6,36z M85,32.7c1.2,0,2,0.8,2,2.2h-4.3C82.9,33.5,83.6,32.7,85,32.7L85,32.7z"/>
		<path class="st0" d="M99.4,33.7c-1-0.7-1.6-0.9-2.4-0.9c-1.6,0-2.6,1.2-2.6,2.9c0,1.8,1.1,2.9,2.9,2.9c0.7,0,1.4-0.2,2.3-0.6v1.6
			C99,40,97.9,40.2,97,40.2c-2.6,0-4.4-1.8-4.4-4.3c0-2.8,1.6-4.6,4.2-4.6c1,0,1.7,0.2,2.5,0.6V33.7L99.4,33.7z"/>
		<path class="st0" d="M107.1,31.4h2.7V33h-2.7v4.4c0,1,0.7,1.3,1.2,1.3c0.6,0,1.2-0.2,1.9-0.6v1.6c-0.6,0.3-1.5,0.6-2.1,0.6
			c-1.8,0-2.8-1.2-2.8-2.7V33h-1.5v-0.2l3.2-3.1V31.4L107.1,31.4z"/>
		<path class="st0" d="M115.9,31.4v2l0,0c0.9-1.5,1.7-2.2,2.5-2.2c0.7,0,1.3,0.3,2.1,1l-0.9,1.5c-0.5-0.5-1.2-0.8-1.6-0.8
			c-1.2,0-2.1,1.2-2.1,2.6v4.5h-1.7v-8.6H115.9L115.9,31.4z"/>
		<polygon class="st0" points="125.3,31.4 127,31.4 127,40.1 125.3,40.1 125.3,31.4 		"/>
		<path class="st0" d="M138,33.7c-1-0.7-1.6-0.9-2.4-0.9c-1.6,0-2.6,1.2-2.6,2.9c0,1.8,1.1,2.9,2.9,2.9c0.7,0,1.4-0.2,2.3-0.6v1.6
			c-0.6,0.3-1.7,0.5-2.6,0.5c-2.6,0-4.4-1.8-4.4-4.3c0-2.8,1.6-4.6,4.2-4.6c1,0,1.7,0.2,2.5,0.6V33.7L138,33.7z"/>
	</g>
	<g>
		<g>
			<path class="st0" d="M16.4,7.8c-3.2-1.4-5.2-1.9-7.1-1.9C7.3,5.8,6,6.5,6,7.6c0,3.4,11.4,2.4,11.4,10.2c0,4.2-3.6,6.8-8.6,6.8
				c-4,0-5.9-1-8.1-2.2v-4.8c3.2,2.2,5.1,2.9,7.6,2.9c2.2,0,3.3-0.7,3.3-2.1c0-3.6-11.4-2.3-11.4-10.3c0-3.9,3.4-6.4,8.6-6.4
				c2.5,0,4.8,0.5,7.6,1.7V7.8L16.4,7.8z"/>
			<path class="st0" d="M32.4,23.6c-1.9,0.6-3.5,1-5.1,1c-5.3,0-8.8-3.1-8.8-7.8c0-4.6,3.6-7.8,8.6-7.8c1.5,0,3.5,0.4,5.1,1v3.5
				c-1.3-0.6-2.7-1.1-3.9-1.1c-2.9,0-4.7,1.7-4.7,4.4c0,2.7,1.8,4.5,4.5,4.5c1.2,0,2.2-0.3,4.2-1.1V23.6L32.4,23.6z"/>
			<path class="st0" d="M44.7,21.7v-6c0-2.2-0.9-3.3-2.4-3.3c-1.1,0-2,0.7-3.2,2.3v9.6h-4.8V2h4.8v9.4h0.1c1.4-1.7,2.9-2.5,4.8-2.5
				c2.8,0,5.5,1.7,5.5,5.8v6.1C47.9,20.8,45.9,21.4,44.7,21.7L44.7,21.7z"/>
			<path class="st0" d="M51.7,20.5c0-2.7,0-11.3,0-11.3h4.8v2.2c1.5-1.7,3-2.4,5-2.4c2.4,0,5.5,1.4,5.5,5.8v9.6h-4.8v-9.2
				c0-2.2-1-3-2.4-3c-1.2,0-2,0.6-3.3,2.5c0,0,0,4.2,0,6.6C54.8,20.8,53.2,20.6,51.7,20.5L51.7,20.5z"/>
			<path class="st0" d="M76.7,8.9c-4.7,0-8,3.3-8,7.9c0,4.7,3.5,7.8,8.8,7.8c1.2,0,4,0,6.8-2v-3c-2.2,1.6-3.7,2.2-5.6,2.2
				c-3,0-4.8-1.6-5-4.2h10.8C84.8,12,81.1,8.9,76.7,8.9L76.7,8.9z M73.8,15c0.2-2.1,1.4-3.3,3.3-3.3c1.8,0,3.1,1.3,3.2,3.3H73.8
				L73.8,15z"/>
			<polygon class="st0" points="86.4,9.2 91.1,9.2 91.1,24.3 86.4,24.3 86.4,9.2 			"/>
			<path class="st0" d="M104.3,2v7.9c-1.2-0.6-2.5-0.9-3.9-0.9c-4.3,0-7.3,3.2-7.3,7.8c0,4.5,3,7.8,7.1,7.8c1.6,0,2.9-0.4,4.2-1.5
				v1.2h4.8V2H104.3L104.3,2z M104.3,20.2c-0.9,0.9-1.8,1.2-2.8,1.2c-2.2,0-3.7-1.9-3.7-4.6c0-3,1.4-4.8,3.8-4.8
				c0.9,0,2,0.4,2.7,0.9V20.2L104.3,20.2z"/>
			<path class="st0" d="M119.1,8.9c-4.7,0-8,3.3-8,7.9c0,4.7,3.5,7.8,8.8,7.8c1.2,0,4,0,6.8-2v-3c-2.2,1.6-3.7,2.2-5.6,2.2
				c-3,0-4.8-1.6-5-4.2h10.9C127.1,12,123.5,8.9,119.1,8.9L119.1,8.9z M116.1,15c0.2-2.1,1.4-3.3,3.2-3.3c1.9,0,3.1,1.3,3.3,3.3
				H116.1L116.1,15z"/>
			<path class="st0" d="M134,13.5L134,13.5c1.4-3.2,3-4.6,4.9-4.6c0.9,0,1.7,0.4,3.1,1.4l-1.3,4.2c-1.2-0.8-2-1.1-2.8-1.1
				c-1.7,0-2.9,1.7-3.9,4.4v6.6h-4.8V9.2h4.8V13.5L134,13.5z"/>
		</g>
		<path class="st0" d="M91.3,2.8C91.8,4,91,5.7,89.5,6.5c-1.4,0.9-3,0.6-3.4-0.6c-0.4-1.2,0.4-2.8,1.8-3.7
			C89.4,1.3,90.9,1.6,91.3,2.8L91.3,2.8z"/>
	</g>
	<path class="st0" d="M127.1,28.4c0.2,0.4-0.2,1-0.7,1.3c-0.5,0.3-1,0.2-1.2-0.2c-0.2-0.4,0.1-1,0.6-1.3
		C126.4,27.8,126.9,27.9,127.1,28.4L127.1,28.4z"/>
	<g>
		<path class="st0" d="M40.4,27.3c5-5.1,12-6.8,15.7-3.6c3.7,3.2,2.7,9.9-2.3,15.1c-4.9,5.1-12,6.8-15.7,3.6
			C34.4,39.2,35.4,32.4,40.4,27.3L40.4,27.3z"/>
		<g>
			<path class="st0" d="M43.9,39.6h-5l0.8-3l2.8,0c0.4,0,1-0.3,1.1-0.7l1.2-5.4c0.5-2.2,3.3-4,5.5-4h4.9l-0.7,2.7l-2.6,0
				c-0.6,0-0.8,0.1-0.9,0.6l-1.5,5.8C49,37.9,46.2,39.6,43.9,39.6L43.9,39.6z"/>
			<path class="st1" d="M37.6,31.2c0.4-0.7,0.8-1.3,1.2-1.9h2.9L41,31.2H37.6L37.6,31.2z"/>
			<path class="st1" d="M36.2,34.9c0.1-0.6,0.3-1.3,0.6-1.9h4l-0.6,1.9H36.2L36.2,34.9z"/>
			<path class="st1" d="M56.9,34.6c-0.3,0.7-0.7,1.3-1.2,1.9h-3.8l0.6-1.9H56.9L56.9,34.6z"/>
			<path class="st1" d="M58.2,30.9c-0.1,0.6-0.3,1.3-0.5,1.9h-4.8l0.6-1.9H58.2L58.2,30.9z"/>
			<path class="st1" d="M43.9,39.6h-5l0.8-3l2.8,0c0.4,0,1-0.3,1.1-0.7l1.2-5.4c0.5-2.2,3.3-4,5.5-4h4.9l-0.7,2.7l-2.6,0
				c-0.6,0-0.8,0.1-0.9,0.6l-1.5,5.8C49,37.9,46.2,39.6,43.9,39.6L43.9,39.6z"/>
		</g>
	</g>
</g>
</svg>
